<?xml version="1.0"?>
<svg xmlns="http://www.w3.org/2000/svg" xmlns:xlink="http://www.w3.org/1999/xlink" xmlns:svgjs="http://svgjs.com/svgjs" version="1.1" width="512" height="512" x="0" y="0" viewBox="0 0 512 512" style="enable-background:new 0 0 512 512" xml:space="preserve" class=""><g>
<polygon xmlns="http://www.w3.org/2000/svg" style="" points="255.999,503.983 33.779,382.322 33.779,129.678 255.999,251.339 " fill="#c60000" data-original="#2858dd" class=""/>
<polygon xmlns="http://www.w3.org/2000/svg" style="" points="255.999,503.983 478.219,382.322 478.219,129.678 255.999,251.339 " fill="#ff6464" data-original="#2aa1f2" class=""/>
<path xmlns="http://www.w3.org/2000/svg" style="" d="M441.876,149.575v73.196c0,86.516-47.186,166.144-123.073,207.691l-62.804,34.384v39.137  l222.22-121.661V129.678L441.876,149.575z" fill="#ff3939" data-original="#1982e0" class=""/>
<polygon xmlns="http://www.w3.org/2000/svg" style="" points="478.219,129.678 255.999,8.017 33.779,129.678 205.79,223.851 255.999,251.339 " fill="#ff6464" data-original="#29abe2" class=""/>
<polygon xmlns="http://www.w3.org/2000/svg" style="" points="442.539,149.212 478.219,129.678 255.999,8.017 242.886,15.196 " fill="#ff6464" data-original="#2aa1f2" class=""/>
<path xmlns="http://www.w3.org/2000/svg" d="M478.219,176.967c4.427,0,8.017-3.589,8.017-8.017v-39.21c0.02-2.917-1.611-5.692-4.167-7.094L259.849,0.985  c-2.399-1.313-5.301-1.313-7.699,0L29.93,122.646c-2.557,1.399-4.187,4.179-4.167,7.094v252.582c0,2.929,1.598,5.625,4.167,7.032  l222.22,121.661c0.138,0.076,0.283,0.132,0.424,0.199c0.134,0.063,0.265,0.132,0.402,0.188c0.195,0.079,0.393,0.141,0.592,0.204  c0.132,0.042,0.261,0.092,0.394,0.127c0.223,0.059,0.449,0.097,0.675,0.136c0.112,0.019,0.223,0.049,0.337,0.063  c0.341,0.044,0.683,0.068,1.026,0.068s0.685-0.024,1.026-0.068c0.113-0.015,0.224-0.044,0.337-0.063  c0.226-0.039,0.452-0.077,0.675-0.136c0.133-0.035,0.262-0.085,0.394-0.127c0.199-0.063,0.397-0.125,0.592-0.204  c0.137-0.056,0.268-0.124,0.402-0.188c0.141-0.067,0.286-0.123,0.424-0.199l222.22-121.661c2.569-1.407,4.167-4.103,4.167-7.032  V207.656c0-4.427-3.589-8.017-8.017-8.017s-8.017,3.589-8.017,8.017v169.915L264.016,490.455V256.09l206.186-112.883v25.744  C470.202,173.378,473.791,176.967,478.219,176.967z M41.796,143.207l139.572,76.413c3.882,2.126,8.755,0.701,10.882-3.182  c2.126-3.884,0.701-8.755-3.182-10.882L50.473,129.678L255.999,17.156l205.526,112.522L255.999,242.2l-29.987-16.417  c-3.884-2.127-8.756-0.702-10.882,3.182s-0.701,8.755,3.182,10.882l29.67,16.244v234.365L41.796,377.572V143.207z" fill="#000000" data-original="#000000" style=""/>
<g xmlns="http://www.w3.org/2000/svg">
</g>
<g xmlns="http://www.w3.org/2000/svg">
</g>
<g xmlns="http://www.w3.org/2000/svg">
</g>
<g xmlns="http://www.w3.org/2000/svg">
</g>
<g xmlns="http://www.w3.org/2000/svg">
</g>
<g xmlns="http://www.w3.org/2000/svg">
</g>
<g xmlns="http://www.w3.org/2000/svg">
</g>
<g xmlns="http://www.w3.org/2000/svg">
</g>
<g xmlns="http://www.w3.org/2000/svg">
</g>
<g xmlns="http://www.w3.org/2000/svg">
</g>
<g xmlns="http://www.w3.org/2000/svg">
</g>
<g xmlns="http://www.w3.org/2000/svg">
</g>
<g xmlns="http://www.w3.org/2000/svg">
</g>
<g xmlns="http://www.w3.org/2000/svg">
</g>
<g xmlns="http://www.w3.org/2000/svg">
</g>
</g></svg>
