<?xml version="1.0" encoding="iso-8859-1"?>
<!-- Generator: Adobe Illustrator 19.0.0, SVG Export Plug-In . SVG Version: 6.00 Build 0)  -->
<svg version="1.1" id="Capa_1" xmlns="http://www.w3.org/2000/svg" xmlns:xlink="http://www.w3.org/1999/xlink" x="0px" y="0px"
	 viewBox="0 0 508.448 508.448" style="enable-background:new 0 0 508.448 508.448;" xml:space="preserve">
<path style="fill:#96C8EF;" d="M469.339,143.943v220.122c0,0.345-0.01,0.7-0.03,1.044c0,0.213-0.02,0.426-0.041,0.629
	c-0.02,0.324-0.051,0.649-0.091,0.963c-0.02,0.182-0.041,0.365-0.071,0.537c-0.071,0.507-0.162,0.993-0.274,1.48
	c-0.051,0.253-0.111,0.507-0.182,0.75c-0.081,0.335-0.172,0.669-0.274,0.993c-0.061,0.213-0.132,0.426-0.213,0.639
	c-0.476,1.419-1.095,2.768-1.855,4.045c-0.162,0.284-0.335,0.568-0.527,0.841c-0.071,0.112-0.142,0.223-0.223,0.324
	c-0.203,0.324-0.436,0.639-0.669,0.953c-0.02,0.02-0.03,0.041-0.051,0.061c-0.213,0.274-0.426,0.547-0.659,0.811
	c-0.041,0.061-0.101,0.122-0.152,0.182c-0.152,0.172-0.304,0.345-0.476,0.517c-0.122,0.142-0.253,0.284-0.385,0.406
	c-0.182,0.203-0.375,0.385-0.568,0.568c-0.03,0.041-0.071,0.071-0.101,0.101l-0.01,0.01c-0.02,0.01-0.03,0.03-0.051,0.041
	c-0.274,0.264-0.547,0.507-0.831,0.74c-0.284,0.243-0.568,0.476-0.862,0.689c-0.233,0.193-0.476,0.365-0.72,0.527
	c-0.507,0.365-1.044,0.71-1.592,1.024L254.224,500.844L50.018,382.942c-6.752-3.893-10.908-11.091-10.908-18.877V146.021
	c0-5.505,1.47-10.797,4.136-15.399c0.041-0.071,0.081-0.132,0.122-0.203c2.646-4.501,6.448-8.333,11.121-11.03l188.32-108.728
	c7.066-4.075,15.764-4.075,22.83,0l18.674,10.787l171.441,98.975c4.197,2.433,7.583,5.87,9.935,9.925
	C468.041,134.413,469.339,139.087,469.339,143.943z"/>
<path style="fill:#3D9AE2;" d="M469.339,143.943v220.122c0,0.345-0.01,0.7-0.03,1.044c0,0.213-0.02,0.426-0.041,0.629
	c-0.02,0.324-0.051,0.649-0.091,0.963c-0.02,0.182-0.041,0.365-0.071,0.537c-0.071,0.507-0.162,0.993-0.274,1.48
	c-0.051,0.253-0.111,0.507-0.182,0.75c-0.081,0.335-0.172,0.669-0.274,0.993c-0.061,0.213-0.132,0.426-0.213,0.639
	c-0.476,1.419-1.095,2.768-1.855,4.045c-0.162,0.284-0.335,0.568-0.527,0.841c-0.071,0.112-0.142,0.223-0.223,0.324
	c-0.203,0.324-0.436,0.639-0.669,0.953c-0.02,0.02-0.03,0.041-0.051,0.061c-0.213,0.274-0.426,0.547-0.659,0.811
	c-0.041,0.061-0.101,0.122-0.152,0.182c-0.152,0.172-0.304,0.345-0.476,0.517c-0.122,0.142-0.253,0.284-0.385,0.406
	c-0.182,0.203-0.375,0.385-0.568,0.568c-0.03,0.041-0.071,0.071-0.101,0.101l-0.01,0.01c-0.02,0.01-0.03,0.03-0.051,0.041
	c-0.274,0.264-0.547,0.507-0.831,0.74c-0.284,0.243-0.568,0.476-0.862,0.689c-0.233,0.193-0.476,0.365-0.72,0.527
	c-0.507,0.365-1.044,0.71-1.592,1.024L254.224,500.844L50.018,382.942c-6.752-3.893-10.908-11.091-10.908-18.877V146.021
	c0-5.505,1.47-10.797,4.136-15.399l26.277,15.024l184.701,105.616l211.465-120.914C468.041,134.413,469.339,139.087,469.339,143.943
	z"/>
<path style="fill:#5AAAE7;" d="M43.368,130.419l210.856,120.843v213.776L39.11,340.819V146.021c0-5.505,1.47-10.797,4.136-15.399
	C43.287,130.551,43.327,130.49,43.368,130.419z"/>
<path style="fill:#1A6FB0;" d="M469.339,143.943v220.122c0,7.786-4.156,14.984-10.908,18.877L254.224,500.844V251.262
	l211.465-120.914C468.041,134.413,469.339,139.087,469.339,143.943z"/>
<path style="fill:#1E81CE;" d="M469.339,143.943v184.316c0,7.786-4.156,14.984-10.908,18.877L254.224,465.038V251.262
	l211.465-120.914C468.041,134.413,469.339,139.087,469.339,143.943z"/>
<path d="M472.27,126.54c-0.001-0.002-0.003-0.004-0.004-0.006l-0.001-0.001c-3.044-5.248-7.435-9.636-12.71-12.694L269.44,4.075
	C264.819,1.409,259.559,0,254.224,0c-5.331,0-10.592,1.409-15.217,4.076l-24.33,14.046c-3.636,2.1-4.882,6.75-2.783,10.386
	c2.101,3.637,6.75,4.88,10.386,2.783l24.327-14.045c4.63-2.67,10.61-2.668,15.229-0.002L451.94,126.999
	c0.688,0.399,1.346,0.842,1.979,1.319L254.224,242.503l-28.863-16.504c-3.646-2.086-8.291-0.821-10.375,2.826
	c-2.084,3.646-0.819,8.291,2.826,10.374l28.809,16.474v232.002L53.816,376.355c-4.381-2.526-7.103-7.235-7.103-12.29V347.2
	c0-4.2-3.404-7.603-7.603-7.603S31.507,343,31.507,347.2v16.865c0,10.473,5.638,20.231,14.71,25.461l204.206,117.903
	c1.176,0.679,2.489,1.019,3.802,1.019c1.313,0,2.626-0.34,3.802-1.019l74.842-43.212c3.636-2.1,4.882-6.75,2.783-10.386
	c-2.101-3.637-6.752-4.881-10.386-2.783l-63.437,36.628V255.673l199.745-114.214c0.031,0.248,0.052,0.499,0.074,0.748
	c0.014,0.157,0.035,0.313,0.046,0.471c0.027,0.421,0.042,0.842,0.042,1.264v220.122c0,5.055-2.722,9.764-7.107,12.292
	l-103.024,59.484c-3.636,2.1-4.882,6.75-2.783,10.386c2.111,3.655,6.767,4.872,10.386,2.783l103.02-59.482
	c9.075-5.232,14.714-14.989,14.714-25.463V143.943C476.942,137.84,475.326,131.823,472.27,126.54z"/>
<path d="M39.11,324.39c4.199,0,7.603-3.403,7.603-7.603V146.021c0-0.661,0.039-1.319,0.095-1.975
	c0.015-0.173,0.032-0.346,0.052-0.517c0.064-0.586,0.146-1.169,0.253-1.747c0.011-0.058,0.017-0.116,0.028-0.173l144.267,82.494
	c3.646,2.084,8.289,0.82,10.375-2.826c2.084-3.646,0.819-8.291-2.826-10.374l-144.169-82.44c1.086-0.933,2.255-1.77,3.502-2.49
	l137.652-79.475c3.636-2.1,4.882-6.75,2.783-10.386c-2.1-3.637-6.75-4.88-10.386-2.783L50.691,112.802
	c-5.814,3.354-10.664,8.199-14.023,14.006c-3.377,5.826-5.161,12.471-5.161,19.211v170.765
	C31.507,320.985,34.911,324.39,39.11,324.39z"/>
<g>
</g>
<g>
</g>
<g>
</g>
<g>
</g>
<g>
</g>
<g>
</g>
<g>
</g>
<g>
</g>
<g>
</g>
<g>
</g>
<g>
</g>
<g>
</g>
<g>
</g>
<g>
</g>
<g>
</g>
</svg>
